<?xml version='1.0' encoding='utf-8'?>
<svg xmlns:xlink="http://www.w3.org/1999/xlink" xmlns="http://www.w3.org/2000/svg" version="1.1" x="0px" y="0px" width="3000px" height="3000px" viewBox="-368.066 -139.283 3000 3000" enable-background="new -368.066 -139.283 3000 3000"> <defs> </defs> <path id="Hair_Back_1_" d="M1931.608,810.615c-11.945-1.328-8.811-23.238-9.555-39.563c-0.449-9.795-9.557-17.647-9.557-17.647 s24.422-20.246,1.061-39.686c-23.361-19.438-4.896-61.772-26.543-72.196c-28.666-13.805-8.207-52.392-31.852-65.828 c-46.719-26.545-28.621-52.722-43.533-63.707s13.803-37.161-20.172-67.95c-18.744-16.988-9.123-51.227,3.186-49.902 c18.297,1.968,18.098,7.436,15.928,28.67c-2.172,21.233,2.17,27.193,21.645,30.719c28.721,5.2-1.992,36.167,12.328,49.973 c14.32,13.806,38.223-5.637,33.977,13.107s-20.807,22.184-12.203,31.818c12.826,14.358,47.24-4.583,47.24-4.583 s-25.16,12.976-40.348,2.125c-7.43-5.309,41.412-41.408,15.928-48.84c-17.084-4.983-53.086,2.123-21.234-29.729 c13.432-13.432-16.275-28.679-39.285-36.996c-10.381-3.752,1.605-35.202,7.434-52.19s-42.469,6.376-50.963-33.972 c-8.496-40.347-14.865-48.84-33.977-48.84s-8.494-55.21-28.666-57.333c-20.174-2.123-32.914-4.246-47.777-33.975 c-14.867-29.729-56.664-65.829-56.664-65.829s-10.986-46.418-39.955-28.667c-32.914,20.17-48.842-11.682-48.842-11.682 s19.342-50.997-6.141-48.873c-25.48,2.125-52.891-12.704-52.891-12.704s-21.316-21.233-26.266-23.358 c-4.949-2.124-20.645-6.37-20.645-6.37c-26.771,0-63.736-14.863-71.799,0c-8.063,14.864-23.55-22.064-48.328,16.158 c-24.779,38.222-41.137,32.681-41.137,32.681s-36.449-9.559-44.941,5.307c-8.494,14.866-5.311,24.422-5.311,24.422 s-46.992-23.642-72.475,18.828c-25.481,42.47-28.035-9.558-37.946,16.206c-15.925,41.408-52.025,30.792-52.025,30.792 s-7.432,11.678-7.432,26.542s-41.407,16.988-41.407,16.988s38.311,23.359,47.778,10.618c9.467-12.742,12.741-28.667,27.605-24.421 c14.863,4.246-8.493,14.867-19.111,33.979c-10.619,19.111-47.92,22.265-46.716,55.207c0.704,19.271-19.112,40.35-19.112,40.35 s-38.301-7.67-36.179,7.166c2.123,14.835-14.785,50.167-14.785,50.167s21.236-31.852,25.482-21.234 c4.246,10.618,12.739,27.605-8.495,33.976c-21.234,6.37-44.593-27.606-50.963,0c-6.37,27.605,0,33.977,0,33.977 s-2.122-33.976,21.236-19.112c23.357,14.864,14.864,19.112,14.864,19.112s2.123,25.481-6.371,25.481s-71.334-19.872-55.211-9.395 c30.792,20.009-10.616,56.107-4.246,79.465c6.37,23.359-46.718-8.49-40.347,25.485c6.371,33.976,31.852,38.223,31.852,38.223 s-50.091,4.246-32.477,16.986c17.613,12.741,34.602,27.606,21.861,42.47c-12.741,14.864-29.992-8.493-25.614,12.741 c4.378,21.234,19.244,42.47,19.244,42.47s-55.209-7.838-44.593,10.944c10.616,18.783,38.223,29.401,38.223,29.401 s-29.729,2.124-29.729,23.359c0,21.234,21.234,31.851,21.234,31.851l-31.083,18.046l9.849,32.917c0,0-31.852-10.616-31.852,0 s29.729,42.468,29.729,42.468s-31.852-10.617-29.729,12.741c2.123,23.359,25.481,36.1,25.481,36.1s-34.177,12.74-25.583,25.481 c8.595,12.74,38.324,33.976,38.324,33.976s-10.618,19.11-25.481,23.358c-14.864,4.247,19.111,10.618,19.111,10.618 s9.487,13.565,4.613,19.007c9.5-1.923,22.315-5.419,25.115-11.689c5.445-12.2,128.691-58.211,193.236-60.405 c64.546-2.194,127.535,43.692,242.076,55.211c114.541,11.518,139.717-82.376,212.131-103.831 c72.412-21.454,148.857-27.826,206.191,14.645c57.334,42.47,148.969,56.783,159.727,74.5c10.76,17.718-5.904-32.031,0-42.649 c5.904-10.617,33.514-27.605,22.895-36.099c-10.621-8.493-40.348,6.37-40.348-8.493c0-14.864,45.162-8.496,42.754-16.989 c-1.947-6.872-16.219-17.909-27.221-21.875c14.035,1.341,40.42,1.605,34.369-9.978c-8.871-16.989,18.666-46.717-6.063-50.962 c-24.729-4.246-25.793-22.298-21.543-32.916c4.248-10.618,19.111,5.308,19.111,5.308s1.781-11.019,6.945-15.215 c6.031-4.901,15.512-2.814,14.467,1.64c-8.672,36.935,28.49,31.904,28.49,45.431c0,13.527-19.111,29.182-19.111,29.182 s19.107-9.014,23.357-19.629C1940.102,823.078,1950.719,812.74,1931.608,810.615z M864.563,801.842 c0,9.555-10.617,11.679-10.617,11.679s-9.556-3.186-13.803-11.679c-4.248-8.494,1.039-14.456,1.039-14.456 s11.912-3.817,15.949-2.532C862.253,786.483,864.563,792.286,864.563,801.842z M827.402,758.311h30.79l-19.238,18.049 c0,0-9-5.901-10.938-8.929C827.065,765.947,827.402,758.311,827.402,758.311z M833.773,945.176 c-7.433-4.248,5.181-9.556,5.181-9.556l12.759,15.926C851.713,951.546,841.206,949.423,833.773,945.176z M858.192,866.608 c-7.432,0-6.434-13.285-6.434-13.285s0.064-9.012,6.434-9.012c6.371,0,8.495-3.186,12.741,4.246 C875.179,855.989,865.625,866.608,858.192,866.608z M917.518,440.852c11.811,3.185,16.059,4.754,16.059,4.754v20.728l-32.119-20.728 C901.458,445.606,905.708,437.667,917.518,440.852z M886.329,519.255c-10.441-18.855,3.185-39.119,3.185-39.119 s14.471,16.703,5.643,27.911c-8.828,11.208,13.469,27.83,13.469,27.83S896.77,538.109,886.329,519.255z M875.181,563.748 l33.445-7.166c0,0,1.566,11.003,0,14.184c-1.997,4.057-14.333,11.027-14.333,11.027s-6.349-9.18-8.465-11.178 C883.166,568.102,875.181,563.748,875.181,563.748z M927.207,744.508c0,0,0-9.556-4.248-25.481 c-4.248-15.926-14.333-20.439-14.333-20.439h12.646c0,0,10.181,8.761,12.306,22.96C935.701,735.748,927.207,744.508,927.207,744.508 z M947.378,466.333l-7.431-20.728c0,0,4.183-1.999,5.839-5.285c1.327-2.631,4.778-10.518,4.778-10.518L947.378,466.333z M1324.534,49.801c0,0-34.215,3.518-24.301-0.728c9.914-4.245,15.221-40.252,32.246-25.481L1324.534,49.801z M1765.264,352.728 c-10.537,3.713-12.027,14.861-12.027,14.861s-3.717-13.268,1.061-26.944c4.777-13.674-3.186-26.942-3.186-26.942 s9.914,1.598,17.857,13.542C1775.329,336.802,1775.803,349.016,1765.264,352.728z M1772.879,372.372l5.311-15.396 c0,0,3.713,12.21,9.023,15.926c5.309,3.716,12.207,5.84,12.207,5.84s-13.271,6.901-21.23,3.268 C1771.989,379.178,1772.879,372.372,1772.879,372.372z M1805.26,609.933c0,0-12.74-15.671-6.371-28.141 c6.371-12.471,23.891-11.027,23.891-11.027s-2.744,3.431-8.539,12.143C1808.444,591.618,1805.26,609.933,1805.26,609.933z M1839.5,769.287c-2.389,6.464-5.574,14.24-11.146,11.056c-5.574-3.186-8.76-3.982-5.574-18.315c0,0,3.98-3.186,7.729-3.186 S1841.891,762.823,1839.5,769.287z M1883.297,768.397c0,0,17.027-19.84,18.109-29.634c1.084-9.795-16.518-18.144-16.518-18.144 s18.395-11.148,29.543,1.592c11.146,12.741-6.859,22.008-11.492,31.193c0,0,16.785,15.602-7.398,15.507 C1888.983,768.885,1883.297,768.397,1883.297,768.397z"/> <path id="Body_1_" fill="#CE744D" d="M1260.59,489.692c-34.611,85.204-32.705,232.52-76.871,251.631 c-44.167,19.112-123.797,41.408-142.908,73.26c-19.111,31.853,38.223-22.297,54.148,47.778 c15.926,70.074,3.185,229.335-12.742,267.557c-15.925,38.222-60.518,3.185-79.629,57.333c-19.111,54.148,0,140.149,0,140.149 s-14.313,25.662-8.493,41.407c9.025,24.421-26.544,38.223-7.433,57.334c19.112,19.111,86,76.445,111.482,159.26 c25.481,82.816,8.277,304.496,8.704,355.459s29.094,117.853,76.871,86c47.777-31.852,137.391-208.938,159.686-275.828 c22.297-66.889,73.26-162.445,98.742-197.482c25.48-35.037,63.66-81.785,89.91-110.468c8.42-9.2,24.646-14.983,48.945-24.353 c13.648-5.264,63.244-32.53,87.295-72.218c22.326-36.848,37.447-73.81,43.809-108.004c8.158-43.85,3.969-83.139,3.969-111.775 c0-50.962-50.965-210.223-73.26-235.704c-22.297-25.482-76.445-73.26-111.482-79.631c-35.037-6.37-47.777-47.778-47.777-89.186 s31.852-73.26,6.369-117.852C1464.444,559.766,1260.59,489.692,1260.59,489.692z"/> <path id="Left_Leg_1_" fill="#CE744D" d="M1116.018,1788.545c39.885-32.717,161.563-27.255,191.289-3.185 c29.729,24.068,77.365,65.548,88.104,79.278c8.643,11.051,11.699,36.101,52.047,55.212 c40.346,19.111,246.32,125.283,274.988,144.396c28.666,19.11,151.828,125.286,170.939,161.384s33.977,97.678,14.865,148.641 s-78.572,93.435-118.916,112.546c-40.344,19.112-65.826,29.728-87.063,36.099c-21.234,6.369-78.568,12.74-97.68,12.74 s-263.309,6.371-322.766-12.74c-59.459-19.111-199.608-63.705-199.608-63.705l-341.878-76.444c0,0-29.728-6.367-59.457,21.236 c-29.729,27.603-127.167,27.603-128.349-16.989c-1.182-44.594,13.682-66.894,28.546-83.881 c14.863-16.986,50.146-15.335,89.186-18.046c41.132-2.859,42.469-19.111,80.692-10.617c38.222,8.495,61.58,33.977,110.42,19.112 c48.84-14.867,280.299-91.312,327.015-101.928c46.715-10.615,191.113-46.718,242.076-25.481s74.639,21.236,74.48,6.371 c-0.16-14.867-3.111-17.127-0.16-14.867c43.215,33.09-13.428,66.713-129.531,42.473c-116.104-24.241-135.903,0-152.891,0 s-124.272,61.579-174.124-48.988c-48.846-108.34-35.247-157.512-24.369-205.827 C1032.581,1906.662,1082.735,1815.847,1116.018,1788.545z"/> <path id="Shadow_2_1_" fill="#BB6A46" d="M1646.774,2333.18c0,0-130.887,37.985-222.772,30.705 c-90.344-7.158-141.446-26.803-171.952-29.961c-61.533-6.37-58.18,30.259-58.18,30.259s115.696,28.341,155.174,30.26 C1423.728,2398.074,1646.774,2333.18,1646.774,2333.18z"/> <path id="Shadow_1_1_" fill="#BB6A46" d="M1495.735,2182.497c0,0,37.27-38.422-56.543-65.67 c-23.891-6.939-75.303-37.367-130.986-72.095c-41.358-25.794,15.249-138.445,15.249-138.445s-66.95,10.256-97.601,23.675 c-10.444,4.572-53.315,30.947-72.574,45.383c-17.206,12.898-34.529,22.248-34.529,22.248l57.514,137.581l22.336,54.877 c0,0,99.94-22.313,123.647-25.237c23.709-2.924,72.933-12.455,108.186-6.096C1464.907,2164.936,1495.735,2182.497,1495.735,2182.497 z"/> <path id="Shadow_3_1_" fill="#BB6A46" d="M1395.216,2483.806c0,0,153.505-8.289,203.292-1.918c49.789,6.371,20,17.667,20,17.667 L1395.216,2483.806z"/> <path id="Overshadow_3_1_" fill="#6C3A20" d="M1289.268,2130.717c-41.916-19.685-66.847-48.325-95.431-82.549 c-36.63-43.857-49.13-67.672-49.13-67.672l-25.957,17.096l57.514,137.581l22.336,54.877c0,0,99.94-22.313,123.647-25.237 c23.709-2.924,66.686-6.183,66.686-6.183S1345.933,2157.329,1289.268,2130.717z"/> <path id="Overshadow_1_1_" fill="#231F20" d="M1495.735,2182.497c0,0-55.894-33.642-171.554-23.779 c-57.152,4.873-136.636,27.815-136.636,27.815l11.056,5.518c0,0,99.94-24.313,123.647-27.237 c23.709-2.924,73.69-4.523,108.221,1.359C1461.934,2171.533,1495.735,2182.497,1495.735,2182.497z"/> <path id="Right_Leg_1_" fill="#CE744D" d="M1234.766,1514.266c25.824,63.705-16.645,284.544-42.125,375.854 c-25.482,91.31-161.707-6.647-51.145,139.172c19.516,25.738,65.322,105.031,93.27,196.338 c27.948,91.307,27.948,148.644,27.948,242.075s4.249,199.601-38.222,248.443c-42.471,48.842-154.914,116.792-200.618,106.175 c-45.705-10.615-196.47-50.963-245.311-78.569c-48.839-27.605-388.134-328.091-437.435-367.358 c-61.312-48.836-144.325-114.061-173.063-135.902c-39.815-30.264-106.172,21.234-118.913,31.852 c-12.741,10.616-33.295,13.446-39.285,6.369c-9.698-11.459-8.493-16.986,8.495-22.296s-13.279,8.495-16.195-1.061 c-2.916-9.555,21.503-20.175,21.503-20.175c5.317-0.703-17.587,11.052-18.051,0c-0.553-13.204,14.864-13.805,14.864-13.805 s-4.249,4.809-10.883-3.714c-4.149-5.332,14.334-11.945,14.334-11.945s-11.9,4.891-11.945-1.327c0,0,0.258-11.38,3.186-13.802 c1.264-1.048,9.556-1.593,9.556-1.593s4.777-10.352,19.907-27.871c10.758-12.457,28.433-26.861,46.358-47.476 c31.05-35.703,62.952-78.865,71.761-83.382c41.407-21.232,80.692-26.539,99.803,13.806c19.111,40.343-3.185,69.011,9.556,81.751 c12.741,12.741,98.74,26.545,169.877,33.977c71.136,7.432,254.813,23.298,325.953,80.691 c71.14,57.393,104.726,138.688,108.297,156.074c3.571,17.385-1.063,35.037-1.063,35.037s-202.791-93.434-266.495-165.63 s-97.68-144.398-102.989-207.039c-5.309-62.64-9.556-133.778-6.371-149.704c3.186-15.926,30.79-107.233,41.408-129.53 c10.618-22.296,72.911-120.018,95.557-147.582c24.421-29.729,82.814-73.26,107.236-86.001 c24.421-12.741,132.716-80.625,148.642-88.091c15.926-7.466,66.809-34.523,79.864-37.193c13.055-2.668,30.657-10.615,51.842-10.615 c21.184,0,98.691,19.11,130.544,39.282C1186.27,1469.673,1234.766,1514.266,1234.766,1514.266z"/> <path id="Right_Leg_Shadow_1_" fill="#BB6A46" d="M652.416,2095.034c37.7,9.03,165.432,92.372,198.738,156.075 c20.24,38.715,48.452,99.803,36.239,140.149c-12.212,40.347-12.212,40.347-12.212,40.347s4.066-49.368-24.027-91.696 c-28.093-42.328-79.023-107.743-127.06-124.771c-48.036-17.026-102.561-31.819-142.523-37.892 c-39.963-6.073-39.963-6.073-39.963-6.073S541.607,2068.493,652.416,2095.034z"/> <path id="Bottom_of_Top_1_" d="M1351.467,1549.516c32.635,10.492,93.588,5.223,93.588,5.223s-15.846,16.857-30.611,50.834 s-39.336,72.654-50.414,100.133c-11.082,27.479-31.98,92.333-31.98,92.333s9.77,11.512,36.408,36.043 c37.705,34.716,54.691,68.614,54.691,68.614s-55.127-3.023-71.682-0.897c-16.555,2.123-111.393,18.05-132.285,30.791 c-20.893,12.74-100.868,65.234-100.868,65.234s-52.088-87.743-90.244-125.754c-43.019-42.854-122.605-123.408-168.659-150.482 c-46.053-27.074-121.194-9.839-153.047-5.593c-31.852,4.245-112.542,49.653-153.969,104.052 c-22.837,29.988-53.961,123.156-53.961,123.156s0-144.393,69.906-237.497c23.262-30.984,61.464-77.322,101.312-112.435 c44.027-38.798,89.36-65.296,103.105-73.57c26.185-15.761,118.387-66.51,148.962-81.157c30.575-14.648,59.945-19.814,59.945-19.814 s149.208,51.607,177.543,63.496c28.336,11.889,77.018,32.824,113.012,44.012C1308.213,1537.421,1351.467,1549.516,1351.467,1549.516 z"/> <path id="Right_Hand_1_" fill="#CE744D" d="M1145.922,801.842c25.482,12.741,16.586,256.586-19.11,337.631 c-54.149,122.938-112.077,124.224-157.965,181.557c-45.889,57.334-87.296,111.482-87.296,133.779 c0,22.296,102.76,194.297,146.936,226.148c44.176,31.853,97.857,42.45,123.339,61.561c25.48,19.111,110.538,91.246,78.79,101.766 c-30.603,10.14,13.581,58.111-18.271,64.93c-19.483,4.171-66.889-45.657-66.889-45.657s52.851,55.426,39.407,71.074 c-17.855,20.784-34.1,9.62-34.1,9.62s-51.359-44.104-65.826-55.213c-14.468-11.107,65.826,55.213,65.826,55.213 s1.063,29.727-33.975,37.158c-15.579,3.303-64.131-87.285-64.131-87.285s88.619,80.918,15.291,80.918 c-30.791,0-75.383-57.337-81.753-92.374c-6.371-35.037-32.459-78.022-50.964-98.741c-52.645-58.942-98.274-80.673-146.052-118.895 c-47.778-38.223-156.075-162.377-133.778-207.004c22.296-44.627,130.593-302.629,149.705-318.555 c19.111-15.926,38.223-149.704,86.001-197.482c47.777-47.778,127.408-140.149,191.111-140.149 C1145.922,801.842,1145.922,801.842,1145.922,801.842z"/> <path id="Under_Cuff_Shadow_1_" fill="#515151" d="M1967.501,1351.54c1.541,11.455-26.384,26.395-59.901,30.904 s-61.939-1.122-63.48-12.577c-1.541-11.454,24.384-24.395,57.9-28.904C1935.54,1336.455,1965.96,1340.085,1967.501,1351.54z"/> <path id="Left_Hand_1_" fill="#CE744D" d="M1622.624,1085.325c10.637,0,49.232,54.732,125.303,46.548 c47.779-5.141,60.469,28.847,60.469,28.847s3.338,12.559,4.502,31.278c2.652,42.617,5.357,126.171,28.586,157.143 c41.406,55.209,37.037,83.372,21.111,140.706c-15.926,57.333-19.111,95.555-19.111,127.407s-18.445,83.466-6.371,91.021 c27.607,17.275,33.607-10.993,39.287-28.377c6.279-19.222,14.861-75.386,14.861-75.386s25.482,117.854,25.482,143.335 c0,19.006-2.381,63.069,8.525,75.089c15.895,17.515,21.855-0.977,25.094-9.071c3.986-9.969-0.477-28.803,2.693-47.678 c6.955-41.43,8.281-91.6,8.281-91.6s-16.988,132.718-2.314,152.666c12.205,16.594,21.424,0.224,34.164-69.851 s12.74-105.112,15.928-114.667c3.186-9.556-33.445,157.667-15.928,160.853c17.52,3.185,31.854-90.778,33.445-103.519 c1.594-12.741-7.963-62.112-7.963-62.112s5.139,97.149,14.514,100.334c9.377,3.186,10.969-57.334,10.969-70.074 c0-12.741-4.777-73.26-17.52-100.334c-12.74-27.074-46.186-148.112-52.555-160.854c-6.371-12.74-16.016-122.617-17.52-133.778 c-9.303-68.964-33.445-133.778-43-157.667s-64.221-124.39-92.912-164.039c-28.398-39.242-112.533-103.519-147.57-106.705 c-35.039-3.184-112.447-44.508-135.057-31.809c-22.611,12.699-41.723,73.217-28.982,127.366 c12.742,54.148,28.668,87.594,54.148,103.52C1588.667,1059.843,1622.624,1085.325,1622.624,1085.325z"/> <path id="Thumbnail_1_" fill="#FFFFFF" d="M1835.143,1675.58c0,0,17.895-6.175,22.672,0c4.779,6.175-1.592,36.434-7.963,43.601 c-6.369,7.167-10.307,5.575-14.709,0c-4.4-5.574-5.33-11.148-5.197-23.96C1830.053,1684.876,1835.143,1675.58,1835.143,1675.58z"/> <path id="Index_Finger_1_" fill="#FFFFFF" d="M1924.706,1801.995c0,0,9.654-6.373,19.111-5.573c9.455,0.8,8.609,11.945,8.045,21.665 c-0.555,9.497-3.268,18.15-8.842,19.742c-5.572,1.593-12.912,1.667-15.129-10.352 C1925.672,1815.458,1924.706,1801.995,1924.706,1801.995z"/> <path id="Middle_Finger_1_" fill="#FFFFFF" d="M1961.192,1799.607c0,0,13.836-2.445,18.934,3.952 c5.1,6.399-10.031,39.845-14.012,38.251c-3.982-1.592-10.428-8.989-10.354-14.959 C1955.836,1820.882,1961.192,1799.607,1961.192,1799.607z"/> <path id="Marriage_Finger_1_" fill="#FFFFFF" d="M1994.303,1783.646c-4.148,7.375-6.205,22.496-5.193,25.018 c1.48,3.699,0.893,4.552,5.383,1.827c8.201-4.975,12.391-23.918,12.391-23.918s-2.15-0.105-6.104-1.418 C1996.594,1783.764,1994.303,1783.646,1994.303,1783.646z"/> <path id="Pinky_1_" fill="#FFFFFF" d="M2034.596,1720.773c0,0-3.188,26.277,0,26.277c9.555,0,6.369-26.259,6.369-26.259 L2034.596,1720.773z"/> <path id="Toenail_4_1_" fill="#FFFFFF" d="M12.782,2198.594l8.764-2.43c0,0,4.271,6.215,0,8.76 c-4.271,2.544-10.75,3.583-10.75,3.583s-1.986-2.429,0-6.172C12.782,2198.594,12.782,2198.594,12.782,2198.594z"/> <path id="Toenail_3_2_" fill="#FFFFFF" d="M8.806,2216.47c-2.152,3.372-1.767,7.428,1.107,8.69 c2.875,1.263,10.571-3.782,10.571-3.782s-0.664-6.501-3.186-7.298C14.778,2213.286,10.409,2213.957,8.806,2216.47z"/> <path id="Toenail_2_1_" fill="#FFFFFF" d="M5.636,2230.493c-3.201,3.497-1.577,10.662,0,11.061 c1.577,0.398,14.98-2.545,14.848-4.855c-0.132-2.312-3.806-9.478-3.806-9.478L5.636,2230.493z"/> <path id="Toenail_1_1_" fill="#FFFFFF" d="M1.925,2250.711c0,0,6.781-5.177,10.215-3.584s1.474,10.498,1.818,10.815 c0.344,0.316-8.804,3.12-10.164,3.12c-1.359,0-3.35-1.991-3.748-4.38C-0.352,2254.294,1.925,2250.711,1.925,2250.711z"/> <path id="Toe_1_" fill="#FFFFFF" d="M1.925,2266.637c-1.481,3.583-2.346,10.75,1.869,12.741c4.215,1.99,10.797,0.796,16.464,0 c5.667-0.797,4.473-4.778,3.278-9.954c-1.194-5.176-2.522-6.769-6.238-7.167c-3.715-0.398-7.473,1.592-10.571,2.786 C3.629,2266.239,1.925,2266.637,1.925,2266.637z"/> <path fill="#BB6A46" d="M1052.113,1892.798c0,0,11.539,26.576,22.208,51.512c10.671,24.931,23.852,27.311,17.99,13.848 C1086.448,1944.694,1052.113,1892.798,1052.113,1892.798z"/> <path fill="#BB6A46" d="M1077.833,1883.473c0,0,28.917,38.066,45.022,59.891c16.104,21.821,36.701,12.645,27.909,0.887 C1141.969,1932.492,1077.833,1883.473,1077.833,1883.473z"/> <path fill="#BB6A46" d="M1142.467,1856.114c0,0,55.545,59.998,30.713,75.925c-12.545,8.044-46.355-8.218-46.355-8.218 s26.043,37.753,52.731,18.89c9.585-6.774,8.97-24.38,6.225-29.858C1179.203,1899.726,1142.467,1856.114,1142.467,1856.114z"/> <path fill="#BB6A46" d="M1161.083,1879.186c0,0,9.765,7.433,17.107,14.7c5.551,5.493,21.32,13.59,25.322,14.132 c8.833,1.195,9.998-8.013,9.998-8.013L1161.083,1879.186z"/> <path fill="#BB6A46" d="M1220.617,1864.338c0,0-0.78-6.748-19.192-26.661c-18.412-19.911-78.266-64.898-78.266-64.898 L1220.617,1864.338z"/> <path id="Overshadow_2_1_" fill="#6C3A20" d="M1301.867,2254.717c4,26,47.174,78.463,74.912,109.168 c18.435,20.406,43.319,94.72,43.319,122.72s0.207,50.07,0.207,50.07s-121.232-9.07-129.424-10.654 c-7.245-1.401-28.049-9.199-28.049-9.199s0.959-94.745-0.912-138.821s-11.672-98.196-19.413-125.283s-22.158-66.416-22.158-66.416 l63.967-14.769L1301.867,2254.717z"/> <path fill="#231F20" d="M1394.481,2394.589c0,0-9.271-18.571-12.694-23.762c-3.252-4.931-14.009-14.724-14.009-14.724 s-24.253-2.064-32.004-3.419c-19.682-3.439-77.725-17.761-77.725-17.761l3.871,44.076c0,0,43.776,11.121,58.406,12.868 C1338.834,2394.079,1394.481,2394.589,1394.481,2394.589z"/> <path fill="#BB6A46" d="M299.934,2252.823c0,0,165.068,183.57,252.534,252.732s216.083,163.162,216.083,163.162 s34.924-62.523-28.618-88C552.468,2505.555,299.934,2252.823,299.934,2252.823z"/> <path id="Middle_Ruffle_1_" d="M1423.266,853.867c15.934-6.011,49.32,39.289,67.547,62.91 c18.223,23.621,24.594,39.019,24.594,87.856c0,48.84,0,122.099,0,122.099s2.125,62.646,0,90.25 c-2.125,27.604,29.729,91.308,29.729,91.308h-40.186c0,0-8.654,23.666-8.654,37.314c0,13.649,25.803,62.494,8.654,64.616 c-17.148,2.121-42.631-12.745-42.631-29.732c0-16.986-2.121-208.1-2.121-220.84s-61.879-156.943-64.787-184.742 S1423.266,853.867,1423.266,853.867z"/> <path id="Breast_Extended_1_" fill="#CE744D" d="M1395.217,879.549c0,0,3.404,25.279,12.957,67.749 c9.551,42.471,36.881,135.465,71.135,198.694c25.102,46.335,25.48,103.759,16.986,141.521s-43.986,96.042-78.666,119.762 c-74.225,50.773-142.176,32.668-142.176,32.668L1395.217,879.549"/> <path id="Inside_of_See_Through_Top_1_" fill="#F9B9AF" d="M1847.448,1371.838c0,0,7.59-24.8,29.887-29.305 c22.297-4.504,68.115-8.722,82.814,3.186c14.701,11.906-2-62.912-11.555-132.986s-56.922-150.4-90.844-205.794 c-33.92-55.393-53.393-77.689-86.385-112.727c-32.996-35.037-112.625-62.083-138.105-70.856 c-14.281-4.917-65.229-10.343-101.656-25.365c-28.574-11.783-45.766-34.372-45.766-34.372l-56.432,101.926 c0,0,48.592,26.853,83.629,69.853s102.139,127.631,109.588,162.667c7.449,35.038,27.588,130.593,6.371,187.927 c-21.217,57.333-116.773,124.291-174.105,172.035c-57.336,47.744-82.816,66.855-82.816,66.855s88.908-213.639,72.982-291.985 c-15.926-78.345-36.266-182.61-41.883-243.129c-5.619-60.519,0-95.557,0-95.557s-27.914-55.713-59.768-83.598 c-31.852-27.884-125.459-133.299-125.459-133.299s-3.541,48.082-73.176,73.702c-35.037,12.89-105.843,54.831-137.161,79.436 c-31.317,24.604-113.162,95.221-129.243,123.942c-8.844,15.796-32.423,55.618-45.596,93.1 c-10.781,30.674-10.384,62.966-24.479,76.052c-27.604,25.631-102.603,222.479-114.668,249.766 c-12.066,27.284-47.777,84.681-44.591,110.162c3.185,25.481,50.176,83.779,62.843,108.686 c15.194,29.87,159.077,142.268,181.116,160.747c22.038,18.48,41.203,35.576,41.203,35.576s1.506-40.637,20.617-66.118 c19.111-25.481,56.957-56.992,56.957-56.992s-56.724-75.455-73.973-104.794c-17.25-29.339-62.503-94.05-50.402-117.78 c12.102-23.731,59.441-95.582,84.64-121.77c25.198-26.188,27.371,3.186,27.371,3.186s-10.652,38.748-9.359,47.777 c2.826,19.74-8.457,45.657-8.457,45.657s71.964,24.486,113.372,40.378s85.316,39.252,139.806,56.238 c54.49,16.987,188.158,64.059,207.381,39.283s65.844-79.238,85.479-104.916c19.633-25.677,53.377-29.904,94.998-50.568 c31.346-15.562,88.654-86.342,94.238-178.837c5.584-92.496-8.213-183.803-36.055-248.016 c-27.842-64.212-52.727-95.236-89.826-127.828c-37.1-32.592,25.357,244.069,64.732,276.451 c39.377,32.382,79.143,18.579,98.584,19.638c58.443,3.186,56.641,47.368,59.713,96.61 C1819.594,1325.534,1847.448,1371.838,1847.448,1371.838z"/> <path id="Hair_Front_Under_1_" d="M1805.26,1082.14c0,0,13.369-43,7.48-52.555c-5.889-9.557-9.072-14.334-7.48-25.482 s-6.869-24.063-6.869-24.063s-15.428-25.307-9.057-30.085s-8.865-22.296-14.785-23.89c-5.92-1.592,15.475-46.186,0-54.148 c-15.475-7.963-25.029-36.63-17.066-50.964c7.963-14.333,10.189-28.667-2.869-38.222c-13.059-9.556,21.021-43,0-68.482 c-21.021-25.481,37.756-19.111,28.275-78.037c-9.48-58.927-17.443-156.075-41.334-157.668c-23.889-1.593-25.48-17.519-30.26-33.444 c-4.777-15.926-97.713-79.63-88.672-133.778c9.043-54.148-21.217-20.705-37.143,46.185c-15.926,66.89-74.693,242.076-80.531,272.336 c-5.838,30.259-23.709,50.383-21.395,92.37c2.283,41.408,10.199,53.005,20.656,70.074c10.459,17.07-24.902,31.853-24.902,31.853 s18.668,15.052,25.641,3.185c6.971-11.867,12.049,19.112,12.049,43c0,23.89,9.557,30.26,9.557,30.26s18.607-42.932,18.58-19.111 c-0.029,23.819,17.834,31.318,24.83,20.658c11.445-17.433,18.639-32.448,25.041-1.071c6.4,31.376,14.363,39.339,14.363,39.339 s-1.84-22.297,8.635-22.297c10.477,0,15.256,33.445,20.031,41.408c4.779,7.963-0.047-19.111,7.143-20.704 c7.191-1.592,5.941,1.593,8.955,22.297c3.016,20.704,10.977,30.259,10.977,30.259s-2.406-36.022,9.15-34.733 c11.555,1.289,32.258,29.956,32.258,42.697s-5.709-35.992,6.371-43c12.082-7.009,28.666,19.11,28.666,27.073 s11.148-27.073,7.965-35.037c-3.186-7.963,12.74,23.889,14.332,39.814c1.594,15.926,8.654-4.92,10.697-16.793 s10.006,23.164,13.191,35.905c3.186,12.74,11.148,22.297,11.148,33.447C1798.889,1050.017,1805.26,1082.14,1805.26,1082.14z"/> <path id="Head_1_" fill="#CE744D" d="M1378.444,161.019c66.889,0,181.557,25.481,222.963,108.297c41.408,82.815,0,146.519,0,162.444 c0,15.927,30.434,31.853,18.402,82.816s-43.883,136.963-78.92,165.63c-35.039,28.667-143.189,22.527-197.484-9.555 c-70.074-41.408-114.667-101.924-133.777-146.516c-19.111-44.593-31.683-146.52-15.758-197.482 c15.926-50.964,43.482-98.741,68.963-121.038C1288.315,183.318,1378.444,161.019,1378.444,161.019z"/> <path id="Right_Collar_1_" d="M889.805,1749.722c22.039,18.48,44.389,38.762,44.389,38.762s1.506-40.637,20.617-66.118 c19.111-25.481,56.957-56.992,56.957-56.992l-31.28-42.445c0,0-45.8,36.21-59.102,51.065 C892.991,1705.706,889.805,1749.722,889.805,1749.722z"/> <path id="Neckline_of_Dress_Top_1_" d="M1193.87,727.5c0,0,47.602,48.073,101.377,97.295 c40.852,37.394,100.164,73.665,100.164,73.665s-4.848,66.468-4.227,101.926c0.998,56.842,33.379,155.612,41.006,186.865 c14.885,60.999,1.941,87.012-8.189,150.766c-8.959,56.365-72.533,211.499-72.533,211.499s105.035-74.986,127.842-97.893 c25.641-25.756,88.535-75.976,116.791-96.617c40.344-29.473,62.32-66.73,57.334-159.26c-4.09-75.911-22.592-114.395-65.828-184.743 c-57.719-93.914-133.779-144.396-133.779-144.396s13.477-31.474,25.482-42.47c7.162-6.561,37.645-31.853,37.645-31.853 c-22.672-22.333-31.115-28.667-31.115-28.667l-56.432,101.926c0,0,50.963,35.038,86,78.037 c35.037,43.001,82.093,105.744,97.092,150.742c11.327,33.982,37.713,134.334,16.496,191.668 c-21.217,57.333-116.773,124.291-174.105,172.035c-57.336,47.744-82.816,66.855-82.816,66.855s29.771-67.238,58.404-144.396 c15.277-41.167,30.906-89.555,30.781-121.26c-0.115-29.386-7.539-71.447-20.145-114.757c-17.107-58.776-34.707-119.857-37.941-154.7 c-5.619-60.519,15.617-121.038,15.617-121.038s-43.531-30.231-75.385-58.116c-31.852-27.884-125.459-133.299-125.459-133.299 L1193.87,727.5z"/> <path id="Left_Collar_1_" d="M1942.012,1305.194c-16.695-3.682-32.941-4.5-67.863,5.229c-41.926,11.68-41.926,36.125-41.926,36.125 l15.225,29.305c0,0,9.486-20.137,30.887-29.32c20.903-8.971,67.115-12.722,81.814-0.814c2.703,2.189,7.813,5.417,7.813,5.417 l-3.185-38.649C1964.778,1312.486,1947.848,1306.482,1942.012,1305.194z"/> <path id="Ruffle_Left_1_" d="M1582.715,853.323c0,0,5.422-45.32-17.939-47.592c-23.359-2.272-33.172-7.741-33.172-7.741 l13.531,12.624c0,0-5.762,9.018-9.025,19.894c-9.555,31.852,49.646,62.28,66.094,78.038c-15.367,8.943,13.824,40.394,31.852,65.154 c7.457,10.244-3.316,13.966,5.146,25.624c7.838,10.8,29.195,22.38,37.059,33.445c10.725,15.091-10.598,33.244-1.592,46.809 c10.244,15.436,28.289-0.154,33.482,10.083c4.848,9.55,7.553,17.163,4.77,18.241c-48.092,18.603-0.826,23.97-0.826,23.97 s4.154,21.795,4.768,87.355c0.289,30.931-24.955,81.502-28.727,102.691c-4.379,24.62-94.732,94.652-127.715,101.517 c-17.984,3.743-32.795,25.197-55.953,53.669c-31.812,39.11-60.389,67.707-64.541,78.78c-4.152,11.074,10.652,14.959,10.652,14.959 s14.926-22.179,29.791-14.959c14.865,7.221,40.506,0,40.506,0s43.369-22.504,43.369-33.124c0-10.618,14.865,11.348,14.865,11.348 l16.988-45.323l21.906,16.986l16.316-31.853l19.813-4.246c0,0-3.545-4.18,0-11.646c3.547-7.466,24.779,13.836,37.521,0 c12.74-13.836,8.494-47.809,8.494-47.809h22.297v-16.991c0,0,20.174,0,30.791-12.741c10.615-12.74,10.615-34.884,10.615-34.884 l-27.605,22.144c0,0,32.014-48.838,38.303-67.949c6.291-19.111,23.279,0.716,23.279,0.716l-38.223-38.102l27.604-29.513 l-40.344-20.71l22.561-50.874l-43.061-34.81c0,0,25.391-21.46,24.295-28.613c-1.209-7.918-33.51-31.679-33.51-31.679l29.184-19.111 l-52.74-41.404l-5.658-26.401l-15.555-26.499c0,0-8.959-39.233-18.248-52.215c-3.713-5.192-42.375,2.389-42.375,2.389 L1582.715,853.323z"/> <path id="Hair_Front_Over_1_" d="M1577.096,235.171c-13.076-12.534-52.264-32.35-77.615-38.518 c-23.211-5.647-59.002-1.533-81.756,6.37c-33.623,11.678-57.588,76.445-82.813,89.186c-28.219,14.253-12.211,41.408-9.025,47.778 c3.185,6.371-2.186,22.296-2.186,22.296s26.074,12.741,19.703,25.481c-6.369,12.742-3.184,23.889,0,30.26 c3.186,6.37-13.332,20.704-13.332,20.704s14.926-7.963,2.186-31.852c-12.742-23.89,9.555-23.89-1.592-23.89 c-11.15,0-15.928,11.149-15.928,11.149s-6.369,7.962,0,19.111c6.371,11.148,11.678,42.47,4.247,50.963 c-6.292,7.192,9.495,30.891,14.864,43s3.186,38.223-3.184,39.814c-6.372,1.593,4.775,11.149,4.775,17.52 c0,6.37-7.963,12.74-12.74,14.333s-1.592,19.111,6.37,31.852c7.964,12.741-10.438,29.529-17.164,39.45 c-6.725,9.921,21.942,17.277,23.534,27.136c1.594,9.86-14.332,21.869-14.332,21.869s35.037,11.88,22.295,19.843 c-12.738,7.962-37.961,14.333-32.517,30.259c5.444,15.927,2.259-19.109,11.813-24.419c9.557-5.309,23.361-7.432,14.334-12.21 c-9.026-4.777-23.887-8.895-22.826-13.472s14.862-10.333,14.862-15.949s-17.333-8.803-22.469-16.234s-8.277-15.719-2.991-23.254 c5.287-7.535,20.152-18.684,16.967-28.239c-3.185-9.555-15.928-31.32-8.494-38.752c7.432-7.433,7.431-18.049,1.592-22.297 c-5.838-4.248-9.368-19.112-7.073-27.074c2.296-7.963-10.976-7.433-15.753-4.248s-8.492-2.352-14.863-2.769 s-14.334,10.201-9.025,18.164c5.307,7.963,7.433,10.086-6.371,10.086c-13.803,0-8.492,13.803-3.715,15.396 c4.777,1.592,10.615,15.394,5.837,22.826c-4.776,7.433-13.8,38.224-15.394,39.285c-1.593,1.061,4.512,17.252,10.883,21.234 c6.37,3.982,8.76,16.722,8.76,16.722s-13.898-11.944-14.912-3.981c-1.015,7.963,10.133,12.135,4.559,17.215 c-5.573,5.081-13.536,5.081-13.536,11.452s-7.964,21.5-15.926,21.5c-7.964,0-27.394,12.259-33.276,17.298 c-5.879,5.039-61.205,23.939-61.205,23.939s-7.446-73.885,12.462-91.404c19.908-17.519-7.167-73.26,5.575-108.297 c12.74-35.037-28.844-104.25-14.422-121.403c14.422-17.153-20.616-55.375,8.051-90.413c28.666-35.038,41.747-50.963,49.539-76.445 c7.795-25.481,34.868-58.927,46.018-60.519c11.147-1.592,7.963-20.704,30.258-25.481c22.297-4.778,44.594-11.148,62.113-15.926 c17.518-4.777,16.447-23.89,29.725-22.296c13.275,1.593,22.119,11.149,22.119,11.149s2.105-17.706,20.52-11.242 s31.154,16.02,31.154,16.02s-4.777-9.556,14.334-1.593s20.066,14.803,20.066,14.803s-4.141-22.766,18.156-6.84 c22.297,15.926,45.121,4.778,56.803,17.519c11.678,12.741,22.828,30.259,27.605,35.037s14.869,33.52,14.869,33.52L1577.096,235.171z "/> <path id="Eye_White_Left_1_" fill="#FFFFFF" d="M1531.333,424.03c0,0,13.357-17.285,40.123-15.095 c26.768,2.19,26.768,23.423,26.768,23.423s-15.928,11.632-33.447,10.063C1547.258,440.852,1531.333,424.03,1531.333,424.03z"/> <path id="Eye_White_Right_1_" fill="#FFFFFF" d="M1436.836,411.976c0,0-21.232-26.333-39.283-29.519 c-18.049-3.186-34.912,11.679-34.912,11.679s14.174,20.052,28.543,24.419C1414.542,425.655,1436.836,411.976,1436.836,411.976z"/> <g id="Left_Iris_1_"> <defs> <path id="SVGID_2_" d="M1531.333,424.03c0,0,13.357-17.285,40.123-15.095c26.768,2.19,26.768,23.423,26.768,23.423 s-15.928,11.632-33.447,10.063C1547.258,440.852,1531.333,424.03,1531.333,424.03z"/> </defs> <clipPath id="SVGID_3_"> <use xlink:href="#SVGID_2_" overflow="visible"/> </clipPath> <ellipse clip-path="url(#SVGID_3_)" cx="1562.828" cy="416.835" rx="15.22" ry="22.697"/> </g> <g id="Right_Iris_1_"> <defs> <path id="SVGID_1_" d="M1436.836,411.976c0,0-21.232-26.333-39.283-29.519c-18.049-3.186-34.912,11.679-34.912,11.679 s14.174,20.052,28.543,24.419C1414.542,425.655,1436.836,411.976,1436.836,411.976z"/> </defs> <clipPath id="SVGID_4_"> <use xlink:href="#SVGID_1_" overflow="visible"/> </clipPath> <ellipse clip-path="url(#SVGID_4_)" cx="1399.322" cy="392.416" rx="15.22" ry="22.698"/> </g> <path id="Eyebrow_Right_1_" d="M1447.458,356.976c0,0-27.24-14.337-47.721-20.173c-22.355-6.371-32.771-3.187-45.082,5.308 c-12.311,8.495-22.176,25.479-22.176,25.479s10.926-38.219,39.594-48.835c26.885-9.955,41.408-3.195,61.578,3.185 c10.949,3.464,20.086,11.677,20.086,11.677L1447.458,356.976z"/> <path id="Eyebrow_Left_1_" d="M1531.333,372.902l9.557-26.544c0,0,26.887-7.829,36.098-5.713c9.209,2.118,18.047,5.679,29.73,15.947 c11.684,10.268,9.061,25.418,9.061,25.418s-16.486-13.363-21.799-14.42c-5.313-1.058-22.299-4.25-35.039-3.185 C1546.198,365.469,1531.333,372.902,1531.333,372.902z"/> <path id="Eye_Shadow_Right_1_" fill="#1F1500" d="M1398.938,382.843c-4.273-1.042-12.713-0.168-19.637,1.646 c-5.975,1.566-14.896,9.951-14.896,9.951s11.158,15.564,18.461,20.002c-5.117,4.538-16.516,6.087-22.225,2.187 c-5.754-3.933-11.531-9.535-14.164-16.123c-4.807-12.024,6.096-24.572,15.482-30.593c15.127-9.703,31.822-7.69,46.441,1.608 c14.252,9.064,24.344,23.691,28.436,40.455C1426.752,400.242,1411.624,385.643,1398.938,382.843z"/> <path id="Eye_Shadow_Left_1_" fill="#1F1500" d="M1566.383,394.35c17.43-1.722,30.412,0.621,37.412,17.569 c2.178,5.268,1.273,8.162-1.115,13.735c-0.875,2.039-1.273,6.467-1.273,6.467s-0.797,21.604-36.631,10.298 c6.895,0.147,29.838-4.633,31.322-11.123c2.125-9.291-9.83-18.282-11.678-19.369c-4.365-2.571-14.646-3.14-19.645-3.14 c-10.883,0-23.355,6.583-33.443,15.242C1531.754,419.776,1541.684,396.791,1566.383,394.35z"/> <g id="Eye_Folicle_19_"> <path d="M1376.801,374.648c-0.67,1.926-0.34,3.408,0.35,4.822c0.176,0.358,0.379,0.706,0.6,1.066 c0.242,0.415,0.455,0.778,0.664,1.199c0.406,0.831,0.777,1.674,1.055,2.704c-1.039-0.305-1.842-0.932-2.547-1.607 c-0.344-0.335-0.672-0.739-0.945-1.105c-0.297-0.422-0.566-0.885-0.775-1.382c-0.42-0.989-0.588-2.167-0.305-3.252 C1375.18,376.022,1375.852,375.068,1376.801,374.648z"/> </g> <g id="Eye_Folicle_18_"> <path d="M1400.883,377.113c-0.74,2.169-0.264,3.76,0.631,5.348c0.107,0.2,0.229,0.402,0.355,0.594 c0.117,0.187,0.234,0.35,0.377,0.538c0.273,0.364,0.586,0.719,0.918,1.079c0.666,0.723,1.418,1.422,2.215,2.234 c-1.152,0.021-2.246-0.334-3.252-0.889c-0.504-0.282-0.975-0.636-1.406-1.055c-0.211-0.202-0.418-0.454-0.607-0.695 c-0.174-0.239-0.332-0.485-0.482-0.745c-0.584-1.026-0.932-2.306-0.736-3.559C1399.09,378.725,1399.819,377.586,1400.883,377.113z"/> </g> <g id="Eye_Folicle_17_"> <path d="M1394.25,375.402c-0.738,2.17-0.262,3.761,0.631,5.349c0.107,0.2,0.229,0.402,0.357,0.594 c0.115,0.186,0.232,0.349,0.375,0.538c0.273,0.364,0.586,0.719,0.918,1.079c0.666,0.723,1.42,1.422,2.217,2.233 c-1.152,0.022-2.246-0.333-3.254-0.888c-0.502-0.282-0.975-0.636-1.404-1.055c-0.211-0.202-0.42-0.453-0.609-0.695 c-0.174-0.239-0.332-0.485-0.48-0.745c-0.586-1.027-0.934-2.307-0.738-3.559C1392.458,377.014,1393.186,375.876,1394.25,375.402z"/> </g> <g id="Eye_Folicle_16_"> <path d="M1388.247,375.402c-0.738,2.169-0.262,3.76,0.631,5.348c0.109,0.2,0.229,0.401,0.357,0.594 c0.115,0.187,0.234,0.349,0.377,0.538c0.273,0.364,0.586,0.718,0.916,1.078c0.668,0.724,1.42,1.423,2.217,2.234 c-1.152,0.022-2.246-0.333-3.254-0.888c-0.502-0.282-0.975-0.637-1.404-1.056c-0.211-0.202-0.42-0.453-0.609-0.695 c-0.172-0.238-0.332-0.485-0.48-0.744c-0.586-1.026-0.934-2.307-0.738-3.56C1386.454,377.013,1387.184,375.875,1388.247,375.402z"/> </g> <g id="Eye_Folicle_15_"> <path d="M1382.442,374.648c-0.738,2.169-0.262,3.76,0.631,5.349c0.109,0.2,0.229,0.401,0.357,0.594 c0.115,0.186,0.234,0.349,0.377,0.538c0.273,0.364,0.586,0.718,0.916,1.079c0.668,0.723,1.42,1.422,2.217,2.233 c-1.152,0.021-2.246-0.333-3.254-0.888c-0.502-0.282-0.975-0.637-1.404-1.056c-0.211-0.202-0.42-0.453-0.609-0.695 c-0.174-0.239-0.332-0.485-0.48-0.744c-0.586-1.027-0.934-2.307-0.738-3.559C1380.649,376.26,1381.379,375.122,1382.442,374.648z"/> </g> <g id="Eye_Folicle_14_"> <path d="M1582.897,402.617c0.811,0.358,1.426,1.117,1.764,1.996c0.34,0.888,0.355,1.906,0.125,2.82 c-0.221,0.907-0.682,1.778-1.195,2.417c-0.531,0.614-1.18,1.149-2.199,1.44c-0.135-1.052,0.102-1.859,0.457-2.588 c0.389-0.688,0.727-1.234,0.969-1.873C1583.305,405.606,1583.475,404.261,1582.897,402.617z"/> </g> <g id="Eye_Folicle_13_"> <path d="M1560.139,403.769c1.064,0.474,1.793,1.612,1.988,2.85c0.195,1.253-0.152,2.533-0.738,3.56 c-0.148,0.259-0.307,0.505-0.48,0.744c-0.189,0.243-0.398,0.494-0.607,0.696c-0.432,0.419-0.904,0.773-1.406,1.055 c-1.006,0.555-2.1,0.91-3.254,0.888c0.799-0.811,1.551-1.511,2.217-2.233c0.332-0.36,0.645-0.715,0.918-1.079 c0.143-0.188,0.26-0.352,0.375-0.538c0.129-0.193,0.25-0.394,0.357-0.594C1560.403,407.529,1560.879,405.938,1560.139,403.769z"/> </g> <g id="Eye_Folicle_12_"> <path d="M1566.772,402.059c1.064,0.474,1.793,1.611,1.988,2.85c0.195,1.253-0.152,2.532-0.738,3.559 c-0.148,0.259-0.309,0.506-0.48,0.744c-0.189,0.243-0.398,0.494-0.609,0.696c-0.43,0.419-0.902,0.773-1.404,1.055 c-1.008,0.555-2.102,0.91-3.254,0.888c0.797-0.811,1.549-1.51,2.217-2.234c0.33-0.359,0.643-0.714,0.916-1.078 c0.143-0.188,0.262-0.352,0.377-0.538c0.129-0.193,0.248-0.394,0.357-0.594C1567.034,405.819,1567.512,404.228,1566.772,402.059z"/> </g> <g id="Eye_Folicle_11_"> <path d="M1572.774,402.059c1.064,0.474,1.793,1.611,1.988,2.85c0.195,1.253-0.152,2.532-0.738,3.559 c-0.148,0.259-0.307,0.505-0.48,0.744c-0.189,0.242-0.396,0.494-0.607,0.695c-0.432,0.419-0.902,0.773-1.406,1.055 c-1.006,0.555-2.1,0.91-3.252,0.889c0.797-0.811,1.549-1.511,2.215-2.234c0.332-0.36,0.645-0.715,0.918-1.079 c0.143-0.189,0.26-0.351,0.377-0.538c0.127-0.192,0.248-0.394,0.355-0.594C1573.038,405.818,1573.514,404.228,1572.774,402.059z"/> </g> <g id="Eye_Folicle_10_"> <path d="M1578.579,401.305c1.064,0.473,1.793,1.611,1.988,2.849c0.195,1.253-0.152,2.533-0.738,3.559 c-0.148,0.259-0.309,0.506-0.48,0.744c-0.189,0.242-0.398,0.494-0.609,0.696c-0.43,0.419-0.902,0.773-1.404,1.055 c-1.006,0.555-2.1,0.91-3.254,0.889c0.799-0.812,1.551-1.511,2.217-2.234c0.332-0.359,0.643-0.714,0.916-1.078 c0.143-0.188,0.262-0.352,0.377-0.538c0.129-0.193,0.248-0.394,0.357-0.594C1578.84,405.064,1579.319,403.474,1578.579,401.305z"/> </g> <g id="Nose_1_"> <path d="M1504.95,401.305c0.137,5.955,0.508,11.889,1.197,17.771c0.674,5.877,1.666,11.72,3.266,17.342 c0.797,2.83,1.848,5.471,3.008,8.233l3.441,8.229c2.277,5.504,4.482,11.051,6.549,16.664c2.004,5.636,3.9,11.331,5.293,17.215 c0.672,2.947,1.232,5.938,1.465,9.021c0.104,1.542,0.137,3.109-0.045,4.706c-0.096,0.798-0.242,1.603-0.48,2.405 c-0.119,0.405-0.262,0.796-0.436,1.205c-0.15,0.338-0.297,0.672-0.488,1.048c-1.422,2.856-3.473,5.315-5.889,7.261 c-2.416,1.95-5.127,3.438-7.934,4.585c-2.82,1.126-5.734,1.947-8.684,2.498c-2.951,0.549-5.936,0.872-8.918,0.879 c5.895-0.759,11.703-2.266,16.965-4.806c5.234-2.491,9.938-6.347,12.203-11.463c0.137-0.291,0.275-0.645,0.412-0.991 c0.104-0.281,0.207-0.593,0.283-0.906c0.158-0.632,0.254-1.299,0.307-1.98c0.109-1.366,0.059-2.786-0.078-4.207 c-0.285-2.849-0.891-5.71-1.613-8.544c-1.438-5.679-3.324-11.287-5.357-16.841c-1.986-5.575-4.168-11.092-6.344-16.623 l-3.238-8.323c-0.529-1.394-1.082-2.776-1.568-4.24c-0.471-1.452-0.887-2.915-1.246-4.387c-1.447-5.888-2.105-11.88-2.424-17.854 C1504.336,413.225,1504.385,407.242,1504.95,401.305z"/> </g> <path id="Lips_Top_1_" fill="#EB9085" d="M1408.174,579.94c0,0,43.896-47.488,64.764-22.297c6.707,8.096,7.428,7.595,10.219,3.317 c2.609-4,17.121-9.356,28.934-2.257c6.082,3.653,13.32,14.786,12.613,20.833c-0.703,6.025-11.553,15.466-22.037,10.156 c-10.486-5.31-28.547-10.012-37.102-8.29c-8.553,1.722-14.926,3.845-28.729,3.845C1423.036,585.248,1408.174,579.94,1408.174,579.94 z"/> <path id="Lips_Bottom_1_" fill="#EB9085" d="M1479.309,609.933c16.973,0.941,38.549-9.555,38.545-23.425 c-0.002-13.203-27.77-11.239-38.545-13.105c-10.775-1.866-23.361-1.409-33.977,2.033c-10.615,3.441-26.66,7.472-26.66,7.472 s14.314,10.869,22.68,15.877C1455.608,607.322,1468.313,609.324,1479.309,609.933z"/> <path id="Teeth_1_" fill="#FFFFFF" d="M1463.254,581.792c0,0,5.949,4.875,11.541,5.447c7.166,0.73,14.869-4.534,14.869-4.534 s-11.559-0.831-14.799,0.203C1471.629,583.94,1463.254,581.792,1463.254,581.792z"/> <path id="Lips_Shadow_Top_1_" fill="#D77F76" d="M1408.174,579.94c0,0,1.482-1.862,3.041-3.292c1.363-1.251,4.496-4.246,4.496-4.246 s6.773,6.306,18.871,6.476c27.842,0.389,42.203-3.981,42.203-3.981s3.982,4.37,24.287,8.012c16.381,2.938,23.631-3.371,23.631-3.371 s-0.84,17.133-22.037,10.156c-15.926-5.241-25.361-6.826-33.914-5.104c-8.555,1.722-18.113,0.66-31.916,0.66 C1423.036,585.248,1408.174,579.94,1408.174,579.94z"/> <path id="Lips_Shadow_Bottom_1_" fill="#D77F76" d="M1479.309,609.933c15.99,0.06,24.75-3.384,32.795-11.428 c5.34-5.341,7.127-11.998,7.127-11.998s-22.926,17.852-39.922,17.852c-19.641,0-60.637-21.452-60.637-21.452 s4.551,3.457,10.021,7.37c4.23,3.027,9.012,6.325,12.658,8.508C1455.608,607.322,1468.297,609.893,1479.309,609.933z"/> <path id="Left_Elbow_Shadow_1_" fill="#F38596" d="M1820.667,1145.993c0,0,19.631-25.719,38.742-32.576 c19.111-6.858,41.426-33.838,41.426-33.838l19.492,43.969c0,0-34.5,2.124-46.646,3.185 C1861.534,1127.795,1820.667,1145.993,1820.667,1145.993z"/> <g id="Left_Breast_Outline_1_"> <path d="M1524.833,1319.366c4.852,7.188,9.252,14.48,13.775,21.657c4.488,7.181,9.004,14.31,13.955,20.952 c2.496,3.305,5.066,6.48,8.014,9.201c3.113,2.827,6.328,5.559,9.617,8.217c6.588,5.313,13.439,10.363,20.6,15.127 c-2.035-0.707-4.035-1.525-6.002-2.408c-1.977-0.868-3.922-1.804-5.838-2.799c-3.852-1.955-7.6-4.123-11.252-6.455 c-3.648-2.338-7.195-4.85-10.619-7.537c-3.627-2.762-6.707-6.076-9.467-9.502c-5.506-6.902-9.887-14.442-13.703-22.197 c-1.885-3.894-3.605-7.856-5.145-11.893C1527.262,1327.68,1525.834,1323.601,1524.833,1319.366z"/> </g> <g id="Right_Breast_Outline_1_"> <path d="M1432.315,1397.705c-2.871,2.658-5.92,5.122-9.027,7.508c-3.111,2.384-6.313,4.653-9.588,6.813 c-6.549,4.319-13.352,8.283-20.402,11.771c-7.045,3.498-14.309,6.582-21.754,9.189c-7.453,2.584-15.086,4.683-22.84,6.247 c-7.752,1.569-15.639,2.579-23.527,3.028c-7.893,0.475-15.807,0.498-23.697,0.134c-15.789-0.711-31.482-2.988-46.871-6.558 c-7.697-1.783-15.32-3.892-22.842-6.35c-7.523-2.451-14.939-5.273-22.172-8.578c-7.227-3.314-14.313-7.033-20.963-11.688 c-1.645-1.151-3.318-2.448-4.833-3.692c-1.54-1.25-3.056-2.506-4.566-3.779c-3.032-2.527-5.944-5.191-8.851-7.854 c-5.794-5.347-11.441-10.843-16.828-16.579c-2.707-2.854-5.377-5.742-8.014-8.657c-2.607-2.943-5.173-5.92-7.709-8.92 c-10.09-12.038-19.64-24.539-28.006-37.819c10.308,11.812,20.777,23.386,31.516,34.676c2.68,2.825,5.395,5.616,8.131,8.382 c2.707,2.792,5.446,5.552,8.218,8.276c5.569,5.421,11.153,10.817,16.917,16.007c2.871,2.606,5.819,5.121,8.736,7.667 c1.465,1.264,2.945,2.52,4.427,3.75c1.491,1.256,2.914,2.35,4.465,3.451c6.15,4.348,12.952,7.971,19.92,11.195 c13.997,6.381,28.738,11.316,43.769,14.986c7.518,1.836,15.115,3.354,22.766,4.539c7.646,1.2,15.344,2.092,23.066,2.597 c7.722,0.508,15.469,0.638,23.195,0.325c7.73-0.324,15.424-1.026,23.045-2.345c7.619-1.301,15.158-3.138,22.559-5.449 c7.408-2.284,14.68-5.048,21.771-8.238c7.082-3.206,14.018-6.772,20.711-10.772 C1419.706,1406.941,1426.264,1402.663,1432.315,1397.705z"/> </g> <path id="Right_side_Shadow_1_" fill="#F38596" d="M1103.453,1104.436c0,0-14.875,72.199-1.066,82.815 c13.807,10.617,37.166,24.421,37.166,24.421s-12.741,3.182-36.099,5.307c-23.357,2.125-32.913,9.549-43.531,28.667 c-11.023,19.849-9.555,27.463,3.186,41.868c12.74,14.405,68.192,58.089,68.192,58.089s-54.232-43.685-91.472-30.944 c-37.239,12.741,8.416,27.911,16.91,30.944c8.493,3.033,42.469,32.297,42.469,32.297s-42.486-23.954-73.798-16.522 c-31.313,7.43-25.271,27.805-23.881,39.513c1.389,11.708,11.218,20.082,36.099,17.839c24.882-2.242,72.053,2.884,105.087,24.353 c33.033,21.469,179.535,97.533,179.535,97.533s-149.965-39.194-173.469-49.506c-23.503-10.312-135.161-49.489-148.639-57.228 c-13.478-7.74-28.642,0.538-23.963-23.662c1.63-8.428,10.1-16.021,12.25-23.43c3.54-12.193-4.417-27.537,2.785-41.187 c3.811-7.22,5.296-14.144,6.133-18.626c1.691-9.052-0.458-11.684-0.458-11.684c30.616-37.755,27.54-32.095,40.482-52.882 c8.6-13.811,12.823-27.793,21.491-49.679c6.727-16.983,16.801-29.709,24.421-47.777 C1089.651,1149.847,1103.453,1104.436,1103.453,1104.436z"/> <path id="Ruffle_Right_1_" d="M1144.77,735.091c14.383-8.285,46.947-16.192,46.947-16.192l43.049,71.265l8.836,20.451 c0,0,15.104,9.277,19.23,30.511c4.129,21.235,16.869,25.482,16.869,25.482v25.482l26.901,6.371c0,0,2.827,23.358,9.198,36.099 c6.37,12.741,14.865,25.479-4.248,31.85c-19.111,6.371,52.055-12.515,31.852,12.741c-16.986,21.235,8.063,33.976,8.063,33.976 l-7.072,18.631l-0.99,2.604h16.986c0,0,2.123,21.234,0,31.852c-2.121,10.618,12.742,10.618,12.742,10.618l-21.666,25.481 c0,0,34.195-13.317,34.195,5.309c0,18.625-10.404,31.852-10.404,31.852l25.111,15.223l-4.959,32.555c0,0-8.918,29.73,7.762,29.73 c16.678,0,8.186,31.849,8.186,31.849l12.643,23.36c0,0-2.855,35.168-14.766,36.098c-11.91,0.93,14.766,29.728,14.766,29.728 l-28.59,33.976l13.734,22.051c0,0-12.482,28.527-23.271,24.686c-23.891-8.51-25.406,19-16.986,25.463 c18.025,13.836-17.619,35.699-25.482,31.853c-36.802-18.017-24.514,35.308-36.802,31.852c-22.653-6.37-21.258,22.607-43.771,25.481 c-22.512,2.874-100.053,5.78-101.75-17.577c-1.697-23.356-16.313-18.521-16.313-18.521s20.604-36.033,49.1-39.252 c28.498-3.219,44.803-11.711,40.896-32.947c-3.904-21.235,17.332-14.861,17.332-14.861l10.734-23.36l-19.23-32.021l19.23-14.698 c0,0-9.1-19.627-1.493-36.097c19.231-41.632-42.468-71.145-23.356-80.691c10.23-5.11,31.852-8.495,31.852-8.495 s-4.248-12.744-8.495-27.607c-4.245-14.864-0.798-18.961-9.29-40.345c-8.494-21.383-34.99-44.593-34.99-44.593l-1.063-36.1 c0,0-37.43-35.038-22.127-42.468c30.623-14.866-28.463-29.643-25.697-65.95c0.779-10.229,21.918-35.977,21.918-35.977l-29.6-27.614 l8.791-29.719l-24.512-27.607v-26.264c0,0-11.588-0.782-17.958,0c-6.371,0.782-23.359-18.329-23.359-18.329l-23.357-13.801 C1080.096,778.485,1127.503,745.037,1144.77,735.091z"/> <path id="Strap_Right_1_" fill="#F38596" d="M1018.258,822.499c0,0,17.338-11.884,41.666,1.608 c18.756,10.403,28.924,47.752,33.443,86.031c5.605,47.476-2.345,108.742-3.186,151.297c-0.84,42.555-12.53,120.755-17.519,146.52 c-4.987,25.765,26.542-73.26,30.79-103.519c4.248-30.26,16.988-144.927,16.988-164.038s-7.063-77.143-10.617-97.148 c-5.798-32.634-59.198-41.408-59.198-41.408L1018.258,822.499z"/> <path id="Strap_Left_1_" d="M1552.038,802.36l46.186,12.223c0,0,64.266,48.094,87.119,94.188 c20.645,41.638,34.916,90.026,38.695,111.257c7.262,40.797-4.777,125.015-4.777,125.015s-16.691-100.144-25.666-139.344 c-7.654-33.441-29.002-61.729-41.096-86.926C1628.481,868.731,1552.038,802.36,1552.038,802.36z"/> <path fill="#F38596" d="M887.393,1442.799c0,0-37.88-17.043-55.743-20.885c-20.761-4.464-74.306-24.521-89.185-30.58 c-17.519-7.133-48.842-18.021-48.842-18.021l-6.369,15.666c0,0,10.619,4.249,21.236,7.435c10.616,3.187,29.728,12.744,37.16,16.99 c7.433,4.246,21.234,10.616,21.234,10.616s-27.175,0.672-36.098,2.121c-13.98,2.271-40.665,10.959-54.148,16.658 c-13.273,5.607-24.222,18.283-24.222,18.283s-2.475,8.594-2.703,18.145c-0.131,5.468,5.471,22.131,5.471,22.131 s5.521-14.694,20.391-29.56c14.581-14.575,43.532-25.481,58.396-27.606c14.863-2.125,23.356-1.061,23.356-1.061 s-44.593,16.983-59.457,30.788c-14.863,13.806-35.417,37.834-35.417,37.834l5.145,11.748c0,0,10.613-18.813,36.643-38.962 c24.792-19.192,65.828-37.228,93.433-36.133c27.604,1.095,43.531,1.095,59.457,4.28s29.163,8.438,29.163,8.438 s-2.302-3.791-1.559-9.502C885.48,1445.913,887.393,1442.799,887.393,1442.799z"/> <path fill="#F38596" d="M818.623,1104.436c0,0,53.373,64.767,79.917,73.26c26.543,8.493-48.84-10.618-67.952-22.297 c-19.111-11.679-32.421-18.514-32.421-18.514s8.26-9.022,16.495-19.708C818.796,1111.813,818.623,1104.436,818.623,1104.436z"/> </svg>